{"title":"Happy Valley S02E06 x264 RB58.mp4","uid":13870620,"size":683177684,"categoryP":"video","categoryS":"tv_shows","magnet":"?xt=urn:btih:856287f5568e30c1974a7c62ba491fd6412bbf94&amp;dn=Happy+Valley+S02E06+x264+RB58.mp4&amp;tr=udp%3A%2F%2Ftracker.leechers-paradise.org%3A6969&amp;tr=udp%3A%2F%2Fzer0day.ch%3A1337&amp;tr=udp%3A%2F%2Fopen.demonii.com%3A1337&amp;tr=udp%3A%2F%2Ftracker.coppersurfer.tk%3A6969&amp;tr=udp%3A%2F%2Fexodus.desync.com%3A6969","seeders":2,"leechers":0,"uploader":"RedBaron58","files":1,"time":1458093614,"description":"Happy Valley S02E06 x264 mp4\r\n \nhttp://www.imdb.com/title/tt3428912/\r\n\r\nTrailer:\r\n\r\n\r\nPlease be patient My intial upload speed is limited.\r\nThank you for your kind comments and feedback on my other torrents, your feedback is welcome.\r\n\r\n\r\nAbout the Episode:\r\nCatherine and Shaf call in at Far Sunderland farm to visit Alison and Daryl, but discover \r\na scene of carnage when they enter the building, with Alison slumped on the dining table \r\ncovered in blood having taken an overdose. \r\nMeanwhile, Andy and Jodie begin to suspect that the person who killed Vicky Fleming \r\ncould be someone on the team and as the investigation heads towards a conclusion, \r\nJohn's torment increases, leading him to take drastic measures to avoid the consequences \r\nof his actions. \r\nLast in the series.\r\n\r\nstarring Sarah Lancashire and Siobhan Finneran\r\n\r\n\r\nI hope you enjoy.\r\n\r\n\r\nTechnical:\r\n\r\nGeneral\r\nComplete name                            : G:Happy Valley S02E06 x264 RB58.mp4\r\nFormat                                   : MPEG-4\r\nFormat profile                           : Base Media\r\nCodec ID                                 : isom\r\nFile size                                : 652 MiB\r\nDuration                                 : 59mn 34s\r\nOverall bit rate                         : 1 529 Kbps\r\nWriting application                      : Lavf54.63.104\r\n\r\nVideo\r\nID                                       : 1\r\nFormat                                   : AVC\r\nFormat/Info                              : Advanced Video Codec\r\nFormat profile                           :   \r\nFormat settings, CABAC                   : Yes\r\nFormat settings, ReFrames                : 4 frames\r\nCodec ID                                 : avc1\r\nCodec ID/Info                            : Advanced Video Coding\r\nDuration                                 : 59mn 34s\r\nBit rate                                 : 1 400 Kbps\r\nWidth                                    : 832 pixels\r\nHeight                                   : 468 pixels\r\nDisplay aspect ratio                     : 16:9\r\nFrame rate mode                          : Constant\r\nFrame rate                               : 25.000 fps\r\nColor space                              : YUV\r\nChroma subsampling                       : 4:2:0\r\nBit depth                                : 8 bits\r\nScan type                                : Progressive\r\nBits/(Pixel*Frame)                       : 0.144\r\nStream size                              : 597 MiB (92%)\r\nWriting library                          : x264 core 123 r2189 35cf912\r\nEncoding settings                        : cabac=1 / ref=3 / deblock=1:0:0\r\n\r\nAudio\r\nID                                       : 2\r\nFormat                                   : AAC\r\nFormat/Info                              : Advanced Audio Codec\r\nFormat profile                           : LC\r\nCodec ID                                 : 40\r\nDuration                                 : 59mn 34s\r\nBit rate mode                            : Constant\r\nBit rate                                 : 120 Kbps\r\nChannel(s)                               : 2 channels\r\nChannel positions                        : Front: L R\r\nSampling rate                            : 48.0 KHz\r\nCompression mode                         : Lossy\r\nStream size                              : 51.1 MiB (8%)","torrent":{"xt":"urn:btih:856287f5568e30c1974a7c62ba491fd6412bbf94","amp;dn":"Happy+Valley+S02E06+x264+RB58.mp4","amp;tr":["udp%3A%2F%2Ftracker.leechers-paradise.org%3A6969","udp%3A%2F%2Fzer0day.ch%3A1337","udp%3A%2F%2Fopen.demonii.com%3A1337","udp%3A%2F%2Ftracker.coppersurfer.tk%3A6969","udp%3A%2F%2Fexodus.desync.com%3A6969"],"infoHash":"856287f5568e30c1974a7c62ba491fd6412bbf94","infoHashBuffer":{"type":"Buffer","data":[133,98,135,245,86,142,48,193,151,74,124,98,186,73,31,214,65,43,191,148]},"announce":[],"urlList":[]}}